<?xml version="1.0" encoding="UTF-8" standalone="no"?>
<!DOCTYPE svg PUBLIC "-//W3C//DTD SVG 1.1//EN" "http://www.w3.org/Graphics/SVG/1.1/DTD/svg11.dtd">
<svg width="500" height="100" version="1.1" xmlns="http://www.w3.org/2000/svg">
<line x1="11" y1="0" x2="0" y2="100" style="stroke-width:3;stroke:black"/>
<line x1="11" y1="0" x2="22" y2="100" style="stroke-width:3;stroke:blue"/>
<line x1="33" y1="0" x2="22" y2="100" style="stroke-width:3;stroke:black"/>
<line x1="44" y1="0" x2="33" y2="100" style="stroke-width:3;stroke:black"/>
<line x1="55" y1="0" x2="44" y2="100" style="stroke-width:3;stroke:black"/>
<line x1="66" y1="0" x2="55" y2="100" style="stroke-width:3;stroke:black"/>
<line x1="66" y1="0" x2="77" y2="100" style="stroke-width:3;stroke:blue"/>
<line x1="77" y1="0" x2="88" y2="100" style="stroke-width:3;stroke:blue"/>
<line x1="88" y1="0" x2="99" y2="100" style="stroke-width:3;stroke:blue"/>
<line x1="110" y1="0" x2="99" y2="100" style="stroke-width:3;stroke:black"/>
<line x1="110" y1="0" x2="121" y2="100" style="stroke-width:3;stroke:blue"/>
<line x1="132" y1="0" x2="121" y2="100" style="stroke-width:3;stroke:black"/>
<line x1="132" y1="0" x2="143" y2="100" style="stroke-width:3;stroke:blue"/>
<line x1="154" y1="0" x2="143" y2="100" style="stroke-width:3;stroke:black"/>
<line x1="154" y1="0" x2="165" y2="100" style="stroke-width:3;stroke:blue"/>
<line x1="176" y1="0" x2="165" y2="100" style="stroke-width:3;stroke:black"/>
<line x1="176" y1="0" x2="187" y2="100" style="stroke-width:3;stroke:blue"/>
<line x1="198" y1="0" x2="187" y2="100" style="stroke-width:3;stroke:black"/>
<line x1="209" y1="0" x2="198" y2="100" style="stroke-width:3;stroke:black"/>
<line x1="220" y1="0" x2="209" y2="100" style="stroke-width:3;stroke:black"/>
<line x1="231" y1="0" x2="220" y2="100" style="stroke-width:3;stroke:black"/>
<line x1="242" y1="0" x2="231" y2="100" style="stroke-width:3;stroke:black"/>
<line x1="253" y1="0" x2="242" y2="100" style="stroke-width:3;stroke:black"/>
<line x1="253" y1="0" x2="264" y2="100" style="stroke-width:3;stroke:blue"/>
<line x1="275" y1="0" x2="264" y2="100" style="stroke-width:3;stroke:black"/>
<line x1="275" y1="0" x2="286" y2="100" style="stroke-width:3;stroke:blue"/>
<line x1="297" y1="0" x2="286" y2="100" style="stroke-width:3;stroke:black"/>
<line x1="297" y1="0" x2="308" y2="100" style="stroke-width:3;stroke:blue"/>
<line x1="308" y1="0" x2="319" y2="100" style="stroke-width:3;stroke:blue"/>
<line x1="319" y1="0" x2="330" y2="100" style="stroke-width:3;stroke:blue"/>
<line x1="330" y1="0" x2="341" y2="100" style="stroke-width:3;stroke:blue"/>
<line x1="341" y1="0" x2="352" y2="100" style="stroke-width:3;stroke:blue"/>
<line x1="363" y1="0" x2="352" y2="100" style="stroke-width:3;stroke:black"/>
<line x1="363" y1="0" x2="374" y2="100" style="stroke-width:3;stroke:blue"/>
<line x1="385" y1="0" x2="374" y2="100" style="stroke-width:3;stroke:black"/>
<line x1="385" y1="0" x2="396" y2="100" style="stroke-width:3;stroke:blue"/>
<line x1="407" y1="0" x2="396" y2="100" style="stroke-width:3;stroke:black"/>
<line x1="418" y1="0" x2="407" y2="100" style="stroke-width:3;stroke:black"/>
<line x1="429" y1="0" x2="418" y2="100" style="stroke-width:3;stroke:black"/>
<line x1="440" y1="0" x2="429" y2="100" style="stroke-width:3;stroke:black"/>
<line x1="451" y1="0" x2="440" y2="100" style="stroke-width:3;stroke:black"/>
<line x1="462" y1="0" x2="451" y2="100" style="stroke-width:3;stroke:black"/>
<line x1="462" y1="0" x2="473" y2="100" style="stroke-width:3;stroke:blue"/>
</svg>
